<svg xmlns="http://www.w3.org/2000/svg" width="512" height="512" viewBox="0 0 512 512" version="1.1">
	<path d="M 320.559 192.460 C 294.402 226.263, 273 254.771, 273 255.811 C 273 256.851, 274.170 259.902, 275.599 262.591 C 278.605 268.244, 315.584 316.556, 343.652 351.500 C 365.902 379.200, 368.287 382, 369.643 382 C 371.083 382, 388.699 359.656, 438.889 294.171 C 462.492 263.376, 465.160 259.516, 464.808 256.671 C 464.518 254.325, 452.112 237.563, 417.130 192.250 C 391.123 158.563, 369.456 131, 368.981 131 C 368.507 131, 346.717 158.657, 320.559 192.460 M 99.596 221.498 L 46.938 302.997 47.219 315.248 L 47.500 327.500 99.233 327.759 L 150.967 328.018 151.233 354.259 L 151.500 380.500 172.250 380.770 L 193 381.041 193 354.520 L 193 328 209 328 L 225 328 225 309.525 L 225 291.051 209.250 290.775 L 193.500 290.500 193.244 215.250 L 192.987 140 172.620 140 L 152.253 140 99.596 221.498 M 332.823 210.588 L 297.170 257.127 332.655 303.314 C 352.171 328.716, 368.523 349.500, 368.992 349.500 C 370.073 349.500, 440 258.521, 440 257.115 C 440 256.240, 373.122 168.944, 369.640 165.274 C 368.740 164.326, 360.406 174.584, 332.823 210.588 M 126.896 247.263 L 99.292 290.500 124.796 290.767 C 138.822 290.914, 150.473 290.861, 150.685 290.648 C 151.263 290.070, 155.125 212.092, 154.789 207.763 C 154.516 204.233, 152.978 206.411, 126.896 247.263" stroke="none" fill="black" fill-rule="evenodd"/>
</svg>